<svg width="105" height="32" viewBox="0 0 105 32" fill="none" xmlns="http://www.w3.org/2000/svg">
<path d="M99.9129 21.5895C98.7908 21.5895 97.8248 21.3622 97.0152 20.9076C96.2103 20.4484 95.59 19.7997 95.1544 18.9616C94.7188 18.1188 94.501 17.1221 94.501 15.9716C94.501 14.8494 94.7188 13.8646 95.1544 13.017C95.59 12.1695 96.2032 11.509 96.9939 11.0355C97.7893 10.562 98.7221 10.3253 99.7922 10.3253C100.512 10.3253 101.182 10.4413 101.802 10.6733C102.427 10.9005 102.972 11.2438 103.436 11.7031C103.904 12.1624 104.269 12.74 104.529 13.4361C104.79 14.1273 104.92 14.937 104.92 15.865V16.696H95.7084V14.821H102.072C102.072 14.3854 101.977 13.9995 101.788 13.6633C101.599 13.3271 101.336 13.0644 101 12.875C100.668 12.6808 100.282 12.5838 99.8419 12.5838C99.3826 12.5838 98.9754 12.6903 98.6203 12.9034C98.2699 13.1117 97.9953 13.3934 97.7964 13.7486C97.5976 14.0989 97.4958 14.4896 97.491 14.9204V16.7031C97.491 17.2429 97.5905 17.7093 97.7893 18.1022C97.9929 18.4952 98.2794 18.7983 98.6487 19.0113C99.018 19.2244 99.456 19.3309 99.9626 19.3309C100.299 19.3309 100.607 19.2836 100.886 19.1889C101.165 19.0942 101.404 18.9522 101.603 18.7628C101.802 18.5734 101.954 18.3414 102.058 18.0667L104.856 18.2514C104.714 18.9237 104.423 19.5109 103.983 20.0128C103.547 20.5099 102.983 20.8982 102.292 21.1775C101.606 21.4521 100.813 21.5895 99.9129 21.5895Z" fill="#252525"/>
<path d="M88.132 21.5895C87.0146 21.5895 86.0534 21.3527 85.2485 20.8792C84.4483 20.401 83.8328 19.7381 83.4019 18.8906C82.9758 18.0431 82.7627 17.0677 82.7627 15.9645C82.7627 14.847 82.9781 13.8669 83.409 13.0241C83.8446 12.1766 84.4625 11.5161 85.2627 11.0426C86.0629 10.5644 87.0146 10.3253 88.1178 10.3253C89.0695 10.3253 89.9029 10.4981 90.6178 10.8437C91.3328 11.1894 91.8986 11.6747 92.3153 12.2997C92.7319 12.9247 92.9616 13.6586 93.0042 14.5014H90.1491C90.0686 13.9569 89.8555 13.5189 89.5099 13.1875C89.1689 12.8513 88.7215 12.6832 88.1675 12.6832C87.6988 12.6832 87.2892 12.8111 86.9388 13.0667C86.5932 13.3177 86.3233 13.6846 86.1292 14.1676C85.935 14.6505 85.838 15.2353 85.838 15.9218C85.838 16.6179 85.9327 17.2097 86.1221 17.6974C86.3162 18.1851 86.5885 18.5568 86.9388 18.8125C87.2892 19.0682 87.6988 19.196 88.1675 19.196C88.5132 19.196 88.8233 19.125 89.0979 18.9829C89.3773 18.8409 89.6069 18.6349 89.7868 18.365C89.9715 18.0904 90.0922 17.7613 90.1491 17.3778H93.0042C92.9568 18.2111 92.7296 18.945 92.3224 19.5795C91.9199 20.2093 91.3635 20.7017 90.6533 21.0568C89.9431 21.4119 89.1027 21.5895 88.132 21.5895Z" fill="#252525"/>
<path d="M73.7873 15.0696V21.3764H70.7617V10.4673H73.6452V12.392H73.7731C74.0146 11.7575 74.4194 11.2557 74.9876 10.8863C75.5557 10.5123 76.2447 10.3253 77.0543 10.3253C77.8119 10.3253 78.4724 10.491 79.0359 10.8224C79.5993 11.1539 80.0373 11.6273 80.3498 12.2429C80.6623 12.8537 80.8185 13.5828 80.8185 14.4304V21.3764H77.793V14.9701C77.7977 14.3025 77.6272 13.7817 77.2816 13.4076C76.936 13.0289 76.4601 12.8395 75.854 12.8395C75.4468 12.8395 75.087 12.9271 74.7745 13.1022C74.4667 13.2774 74.2253 13.5331 74.0501 13.8693C73.8796 14.2007 73.792 14.6008 73.7873 15.0696Z" fill="#252525"/>
<path d="M62.2708 21.5824C61.5748 21.5824 60.9546 21.4616 60.41 21.2201C59.8655 20.9739 59.4347 20.6117 59.1174 20.1335C58.8049 19.6505 58.6487 19.0492 58.6487 18.3295C58.6487 17.7235 58.76 17.2145 58.9825 16.8025C59.205 16.3906 59.5081 16.0592 59.8916 15.8082C60.2751 15.5573 60.7107 15.3679 61.1984 15.24C61.6908 15.1122 62.2069 15.0222 62.7467 14.9701C63.3812 14.9039 63.8925 14.8423 64.2808 14.7855C64.669 14.7239 64.9508 14.634 65.126 14.5156C65.3011 14.3972 65.3887 14.222 65.3887 13.99V13.9474C65.3887 13.4976 65.2467 13.1496 64.9626 12.9034C64.6832 12.6572 64.2855 12.5341 63.7694 12.5341C63.2249 12.5341 62.7917 12.6548 62.4697 12.8963C62.1477 13.133 61.9347 13.4313 61.8305 13.7912L59.0322 13.5639C59.1742 12.901 59.4536 12.3281 59.8703 11.8451C60.2869 11.3575 60.8243 10.9834 61.4825 10.723C62.1454 10.4578 62.9124 10.3253 63.7836 10.3253C64.3897 10.3253 64.9697 10.3963 65.5237 10.5383C66.0824 10.6804 66.5772 10.9005 67.0081 11.1988C67.4437 11.4971 67.7869 11.8807 68.0379 12.3494C68.2888 12.8134 68.4143 13.3698 68.4143 14.0184V21.3764H65.545V19.8636H65.4598C65.2846 20.2045 65.0502 20.5052 64.7566 20.7656C64.4631 21.0213 64.1103 21.2225 63.6984 21.3693C63.2865 21.5113 62.8106 21.5824 62.2708 21.5824ZM63.1373 19.4943C63.5824 19.4943 63.9754 19.4067 64.3163 19.2315C64.6572 19.0516 64.9247 18.8101 65.1189 18.5071C65.313 18.204 65.41 17.8608 65.41 17.4772V16.3196C65.3154 16.3811 65.1851 16.4379 65.0194 16.49C64.8584 16.5374 64.6761 16.5824 64.4725 16.625C64.269 16.6629 64.0653 16.6984 63.8617 16.7315C63.6581 16.7599 63.4735 16.786 63.3078 16.8096C62.9527 16.8617 62.6425 16.9446 62.3774 17.0582C62.1122 17.1718 61.9063 17.3257 61.7595 17.5199C61.6127 17.7093 61.5393 17.946 61.5393 18.2301C61.5393 18.642 61.6885 18.9569 61.9868 19.1747C62.2898 19.3878 62.6733 19.4943 63.1373 19.4943Z" fill="#252525"/>
<path d="M49.7443 15.0696V21.3764H46.7188V10.4673H49.6023V12.392H49.7301C49.9716 11.7575 50.3764 11.2557 50.9446 10.8863C51.5128 10.5123 52.2017 10.3253 53.0114 10.3253C53.7689 10.3253 54.4294 10.491 54.9929 10.8224C55.5563 11.1539 55.9943 11.6273 56.3068 12.2429C56.6193 12.8537 56.7756 13.5828 56.7756 14.4304V21.3764H53.75V14.9701C53.7547 14.3025 53.5843 13.7817 53.2386 13.4076C52.893 13.0289 52.4171 12.8395 51.8111 12.8395C51.4039 12.8395 51.044 12.9271 50.7315 13.1022C50.4238 13.2774 50.1823 13.5331 50.0071 13.8693C49.8366 14.2007 49.7491 14.6008 49.7443 15.0696Z" fill="#252525"/>
<path d="M41.2696 21.3764V10.4673H44.2952V21.3764H41.2696ZM42.7895 9.06108C42.3397 9.06108 41.9538 8.91193 41.6319 8.61364C41.3146 8.31061 41.156 7.94839 41.156 7.52699C41.156 7.11032 41.3146 6.75284 41.6319 6.45455C41.9538 6.15152 42.3397 6 42.7895 6C43.2393 6 43.6229 6.15152 43.9401 6.45455C44.2621 6.75284 44.423 7.11032 44.423 7.52699C44.423 7.94839 44.2621 8.31061 43.9401 8.61364C43.6229 8.91193 43.2393 9.06108 42.7895 9.06108Z" fill="#252525"/>
<path d="M29.6272 21.3764V6.83099H39.2579V9.3665H32.7025V12.8324H38.6187V15.3679H32.7025V21.3764H29.6272Z" fill="#252525"/>
<path d="M19.7195 25.4673C19.336 25.4673 18.9761 25.4366 18.6399 25.375C18.3085 25.3182 18.0339 25.2448 17.8161 25.1548L18.4979 22.8963C18.853 23.0052 19.1726 23.0644 19.4567 23.0739C19.7455 23.0833 19.9941 23.0171 20.2024 22.875C20.4155 22.733 20.5883 22.4915 20.7209 22.1506L20.8985 21.6889L16.9851 10.4673H20.1669L22.4254 18.4787H22.5391L24.8189 10.4673H28.022L23.782 22.5554C23.5784 23.1425 23.3014 23.6539 22.951 24.0895C22.6054 24.5298 22.1674 24.8684 21.6371 25.1051C21.1068 25.3466 20.4676 25.4673 19.7195 25.4673Z" fill="#252525"/>
<path d="M0 21.3764V10.4673H2.88352V12.392H3.01136C3.23864 11.7528 3.61742 11.2486 4.14773 10.8792C4.67803 10.5099 5.3125 10.3253 6.05114 10.3253C6.79924 10.3253 7.43608 10.5123 7.96165 10.8863C8.48722 11.2557 8.8376 11.7575 9.01278 12.392H9.12642C9.34896 11.767 9.75142 11.2675 10.3338 10.8934C10.9209 10.5146 11.6146 10.3253 12.4148 10.3253C13.4328 10.3253 14.259 10.6496 14.8935 11.2983C15.5327 11.9422 15.8523 12.856 15.8523 14.0397V21.3764H12.8338V14.6363C12.8338 14.0303 12.6728 13.5757 12.3509 13.2727C12.0289 12.9697 11.6264 12.8182 11.1435 12.8182C10.5942 12.8182 10.1657 12.9933 9.85795 13.3437C9.55019 13.6894 9.39631 14.1463 9.39631 14.7145V21.3764H6.46307V14.5724C6.46307 14.0374 6.30919 13.6112 6.00142 13.294C5.69839 12.9768 5.2983 12.8182 4.80114 12.8182C4.46496 12.8182 4.16193 12.9034 3.89205 13.0738C3.62689 13.2396 3.41619 13.4739 3.25994 13.777C3.10369 14.0753 3.02557 14.4256 3.02557 14.8281V21.3764H0Z" fill="#252525"/>
</svg>
